<svg width="372" height="120" viewBox="0 0 372 120" fill="none" xmlns="http://www.w3.org/2000/svg">
<path d="M0 14.8148C0 6.63282 6.63282 0 14.8148 0H22.2222V112.593C22.2222 115.865 19.5691 118.519 16.2963 118.519H14.8148C6.63282 118.519 0 111.886 0 103.704V14.8148Z" fill="#F0A235"/>
<path d="M108.889 14.8148C108.889 6.63282 102.256 0 94.0741 0H86.6667V112.593C86.6667 115.865 89.3198 118.519 92.5926 118.519H94.0741C102.256 118.519 108.889 111.886 108.889 103.704V14.8148Z" fill="#F0A235"/>
<path d="M7.02427 7.0566C6.74443 6.28774 7.14086 5.4376 7.90971 5.15776L21.814 0.0969999C22.5829 -0.182841 23.433 0.213585 23.7129 0.982441L64.1961 112.209C64.4759 112.978 64.0795 113.828 63.3106 114.108L49.4063 119.169C48.6375 119.449 47.7873 119.052 47.5075 118.283L7.02427 7.0566Z" fill="#F0A235"/>
<path d="M102.874 7.46629C103.154 6.69743 102.757 5.8473 101.989 5.56745L88.0843 0.506693C87.3155 0.226852 86.4653 0.623277 86.1855 1.39213L45.8512 112.21C45.5713 112.979 45.9678 113.829 46.7366 114.109L60.6409 119.169C61.4098 119.449 62.2599 119.053 62.5398 118.284L102.874 7.46629Z" fill="#F0A235"/>
<path d="M47.4074 111.111C47.4074 110.293 48.0707 109.63 48.8889 109.63H60.7407C61.5589 109.63 62.2222 110.293 62.2222 111.111V117.778C62.2222 118.596 61.5589 119.259 60.7407 119.259H48.8889C48.0707 119.259 47.4074 118.596 47.4074 117.778V111.111Z" fill="#F0A235"/>
<path d="M122.222 0.740692H183.069C190.374 0.740692 196.296 6.66285 196.296 13.9682C196.296 16.8903 193.927 19.2592 191.005 19.2592H122.222V0.740692Z" fill="#F0A235"/>
<path d="M122.222 100.741H191.005C193.927 100.741 196.296 103.11 196.296 106.032C196.296 113.337 190.374 119.259 183.069 119.259H122.222V100.741Z" fill="#F0A235"/>
<path d="M122.222 51.1111H187.037C192.151 51.1111 196.296 55.2566 196.296 60.3703C196.296 65.4841 192.151 69.6296 187.037 69.6296H122.222V51.1111Z" fill="#F0A235"/>
<path d="M122.222 0.740692H141.481V119.259H122.222V0.740692Z" fill="#F0A235"/>
<path d="M209.63 9.62958C209.63 4.72038 213.61 0.740692 218.519 0.740692H270.476C277.782 0.740692 283.704 6.66285 283.704 13.9682C283.704 16.8903 281.335 19.2592 278.413 19.2592H209.63V9.62958Z" fill="#F0A235"/>
<path d="M224.445 69.6296C216.263 69.6296 209.63 62.9968 209.63 54.8148V9.62958C209.63 4.72038 213.61 0.740692 218.519 0.740692H228.148V69.6296H224.445Z" fill="#F0A235"/>
<path d="M214.815 51.1111H268.889C277.071 51.1111 283.704 57.7439 283.704 65.9259V69.6296H229.63C221.448 69.6296 214.815 62.9968 214.815 54.8148V51.1111Z" fill="#F0A235"/>
<path d="M265.185 120V51.1111H268.889C277.071 51.1111 283.704 57.7439 283.704 65.9259V105.185C283.704 113.367 277.071 120 268.889 120H265.185Z" fill="#F0A235"/>
<path d="M209.63 106.772C209.63 103.85 211.999 101.481 214.921 101.481H283.704V105.185C283.704 113.367 277.071 120 268.889 120H222.857C215.552 120 209.63 114.078 209.63 106.772Z" fill="#F0A235"/>
<path d="M297.037 8.88889C297.037 3.97969 301.017 0 305.926 0H357.884C365.189 0 371.111 5.92216 371.111 13.2275C371.111 16.1497 368.742 18.5185 365.82 18.5185H297.037V8.88889Z" fill="#F0A235"/>
<path d="M311.852 68.8889C303.67 68.8889 297.037 62.2561 297.037 54.0741V8.88889C297.037 3.97969 301.017 0 305.926 0H315.556V68.8889H311.852Z" fill="#F0A235"/>
<path d="M302.222 50.3704H356.296C364.478 50.3704 371.111 57.0032 371.111 65.1852V68.8889H317.037C308.855 68.8889 302.222 62.2561 302.222 54.0741V50.3704Z" fill="#F0A235"/>
<path d="M352.593 119.259V50.3704H356.296C364.478 50.3704 371.111 57.0032 371.111 65.1852V104.444C371.111 112.626 364.478 119.259 356.296 119.259H352.593Z" fill="#F0A235"/>
<path d="M297.037 106.032C297.037 103.11 299.406 100.741 302.328 100.741H371.111V104.444C371.111 112.626 364.478 119.259 356.296 119.259H310.265C302.959 119.259 297.037 113.337 297.037 106.032Z" fill="#F0A235"/>
</svg>
